<?xml version="1.0" encoding="UTF-8"?>
<svg xmlns="http://www.w3.org/2000/svg" viewBox="0 0 1440 320">
  <path fill='#0099ff' fillOpacity=1 d="M0,128L40,122.7C80,117,160,107,240,112C320,117,400,139,480,133.3C560,128,640,96,720,117.3C800,139,880,213,960,234.7C1040,256,1120,224,1200,186.7C1280,149,1360,107,1400,85.3L1440,64L1440,320L1400,320C1360,320,1280,320,1200,320C1120,320,1040,320,960,320C880,320,800,320,720,320C640,320,560,320,480,320C400,320,320,320,240,320C160,320,80,320,40,320L0,320Z"></path>
</svg>